<?xml version="1.0" encoding="UTF-8"?>
<svg width="16px" height="16px" viewBox="0 0 16 16" version="1.1" xmlns="http://www.w3.org/2000/svg" xmlns:xlink="http://www.w3.org/1999/xlink">
    <!-- Generator: Sketch 59.1 (86144) - https://sketch.com -->
    <title>airbnb</title>
    <desc>Created with Sketch.</desc>
    <g id="Page-1" stroke="none" stroke-width="1" fill="none" fill-rule="evenodd">
        <g id="V!" transform="translate(-1315.000000, -16.000000)" fill="#FFFFFF">
            <g id="header">
                <g id="TopBar" transform="translate(1084.000000, 14.000000)">
                    <g id="airbnb" transform="translate(231.000000, 2.000000)">
                        <path d="M14.8257778,11.3382222 C14.7471111,11.1493333 14.6684444,10.9448889 14.5897778,10.7715556 C14.464,10.4884444 14.3377778,10.2204444 14.2275556,9.96888889 L14.212,9.95288889 C13.1257778,7.59155556 11.9604444,5.19866667 10.7328889,2.83733333 L10.6853333,2.74266667 C10.5595556,2.50666667 10.4337778,2.25466667 10.3075556,2.00311111 C10.1502222,1.71955556 9.99288889,1.42044444 9.74088889,1.13688889 C9.23733333,0.507555556 8.51288889,0.160888889 7.74177778,0.160888889 C6.95466667,0.160888889 6.24622222,0.507555556 5.72666667,1.10577778 C5.49022222,1.38888889 5.31733333,1.688 5.16,1.97155556 C5.03377778,2.22311111 4.908,2.47511111 4.78222222,2.71155556 L4.73466667,2.80577778 C3.52266667,5.16711111 2.34177778,7.56 1.25555556,9.92133333 L1.24,9.95288889 C1.12977778,10.2048889 1.00355556,10.4724444 0.877777778,10.756 C0.799111111,10.9288889 0.720444444,11.1177778 0.641777778,11.3226667 C0.436888889,11.9048889 0.374222222,12.456 0.452888889,13.0226667 C0.625777778,14.2035556 1.41288889,15.1951111 2.49911111,15.636 C2.90844444,15.8093333 3.33377778,15.888 3.77422222,15.888 C3.90044444,15.888 4.05777778,15.872 4.18355556,15.8564444 C4.70311111,15.7933333 5.23866667,15.6204444 5.75822222,15.3213333 C6.40355556,14.9591111 7.01733333,14.4395556 7.71022222,13.684 C8.40266667,14.4395556 9.03244444,14.9591111 9.66222222,15.3213333 C10.1817778,15.6204444 10.7168889,15.7933333 11.2364444,15.8564444 C11.3622222,15.872 11.52,15.888 11.6457778,15.888 C12.0866667,15.888 12.5275556,15.8093333 12.9208889,15.636 C14.0231111,15.1951111 14.7942222,14.1875556 14.9675556,13.0226667 C15.0933333,12.4715556 15.0306667,11.9208889 14.8257778,11.3382222 Z M7.72577778,12.1568889 C6.87555556,11.0862222 6.32488889,10.0791111 6.136,9.22888889 C6.05733333,8.86666667 6.04133333,8.552 6.08844444,8.26844444 C6.12,8.01688889 6.21466667,7.796 6.34044444,7.60755556 C6.63955556,7.18222222 7.14355556,6.91466667 7.72577778,6.91466667 C8.30844444,6.91466667 8.828,7.16666667 9.11111111,7.60755556 C9.23733333,7.796 9.33155556,8.01688889 9.36311111,8.26844444 C9.41022222,8.552 9.39466667,8.88222222 9.316,9.22888889 C9.12711111,10.0631111 8.576,11.0706667 7.72577778,12.1568889 Z M14.0071111,12.8968889 C13.8968889,13.7155556 13.3462222,14.424 12.5746667,14.7386667 C12.1968889,14.896 11.7875556,14.9435556 11.3782222,14.896 C10.9844444,14.8488889 10.5911111,14.7231111 10.1817778,14.4866667 C9.61511111,14.172 9.04844444,13.684 8.38711111,12.96 C9.42622222,11.6844444 10.056,10.5195556 10.292,9.48088889 C10.4022222,8.99288889 10.4177778,8.552 10.3706667,8.14266667 C10.3075556,7.74888889 10.1657778,7.38711111 9.94577778,7.072 C9.45777778,6.36355556 8.63911111,5.95422222 7.72577778,5.95422222 C6.81288889,5.95422222 5.99422222,6.37955556 5.50622222,7.072 C5.28577778,7.38711111 5.144,7.74888889 5.08133333,8.14266667 C5.01822222,8.552 5.03377778,9.00844444 5.16,9.48088889 C5.396,10.5195556 6.04133333,11.7004444 7.06488889,12.9755556 C6.41911111,13.6995556 5.83688889,14.1875556 5.27022222,14.5026667 C4.86088889,14.7386667 4.46711111,14.8648889 4.07377778,14.912 C3.64844444,14.9591111 3.23911111,14.896 2.87733333,14.7546667 C2.10577778,14.4395556 1.55466667,13.7311111 1.44444444,12.9124444 C1.39733333,12.5191111 1.42888889,12.1253333 1.58622222,11.6844444 C1.63377778,11.5271111 1.712,11.3697778 1.79111111,11.1808889 C1.90133333,10.9288889 2.02711111,10.6613333 2.15288889,10.3937778 L2.16888889,10.3622222 C3.25511111,8.01688889 4.42,5.62355556 5.632,3.29377778 L5.67955556,3.19955556 C5.80533333,2.96311111 5.93111111,2.71155556 6.05733333,2.47511111 C6.18311111,2.22311111 6.32488889,1.98711111 6.49777778,1.78266667 C6.82844444,1.40488889 7.26933333,1.2 7.75733333,1.2 C8.24533333,1.2 8.68622222,1.40488889 9.01688889,1.78266667 C9.18977778,1.98711111 9.33155556,2.22311111 9.45777778,2.47511111 C9.58355556,2.71155556 9.70933333,2.96311111 9.83555556,3.19955556 L9.88266667,3.29377778 C11.0791111,5.63955556 12.244,8.03244444 13.3302222,10.3782222 L13.3302222,10.3937778 C13.456,10.6457778 13.5662222,10.9288889 13.6924444,11.1808889 C13.7711111,11.3697778 13.8497778,11.5271111 13.8968889,11.6844444 C14.0231111,12.0937778 14.0702222,12.4875556 14.0071111,12.8968889 L14.0071111,12.8968889 Z" id="Fill-2"></path>
                    </g>
                </g>
            </g>
        </g>
    </g>
</svg>