<?xml version="1.0" encoding="UTF-8"?>
<svg width="24px" height="40px" viewBox="0 0 24 40" version="1.1" xmlns="http://www.w3.org/2000/svg" xmlns:xlink="http://www.w3.org/1999/xlink">
    <!-- Generator: Sketch 60 (88103) - https://sketch.com -->
    <title>271228 copy</title>
    <desc>Created with Sketch.</desc>
    <g id="Page-1" stroke="none" stroke-width="1" fill="none" fill-rule="evenodd">
        <g id="V!" transform="translate(-1297.000000, -838.000000)" fill="#CEBD88" fill-rule="nonzero">
            <g id="hero-image" transform="translate(0.000000, 100.000000)">
                <g id="Group" transform="translate(1297.000000, 738.000000)">
                    <g id="271228-copy" transform="translate(11.864407, 20.000000) scale(-1, 1) translate(-11.864407, -20.000000) translate(0.000000, 0.000000)">
                        <path d="M22.4263631,18.1280268 L4.96581764,0.629544293 C4.56197653,0.224498668 4.02288374,0.0013559322 3.4480641,0.0013559322 C2.87324445,0.0013559322 2.33415166,0.224498668 1.93031056,0.629544293 L0.644462614,1.91788989 C-0.19224767,2.7573925 -0.19224767,4.12182402 0.644462614,4.96004788 L15.3065105,19.6542208 L0.628194134,34.3646979 C0.224353028,34.7697435 0.00137914766,35.3096978 0.00137914766,35.8854572 C0.00137914766,36.461856 0.224353028,37.0018102 0.628194134,37.4071756 L1.91404208,38.6952015 C2.31820217,39.1002471 2.85697597,39.3233898 3.43179562,39.3233898 C4.00661526,39.3233898 4.54570805,39.1002471 4.94954915,38.6952015 L22.4263631,21.1807345 C22.8311612,20.7744101 23.0534971,20.2318984 23.0522266,19.6551799 C23.0534971,19.0762236 22.8311612,18.5340315 22.4263631,18.1280268 Z" id="Path"></path>
                    </g>
                </g>
            </g>
        </g>
    </g>
</svg>