<?xml version="1.0" encoding="UTF-8"?>
<svg width="16px" height="16px" viewBox="0 0 16 16" version="1.1" xmlns="http://www.w3.org/2000/svg" xmlns:xlink="http://www.w3.org/1999/xlink">
    <!-- Generator: Sketch 59.1 (86144) - https://sketch.com -->
    <title>instagram</title>
    <desc>Created with Sketch.</desc>
    <g id="Page-1" stroke="none" stroke-width="1" fill="none" fill-rule="evenodd">
        <g id="Desktop-HD" transform="translate(-1364.000000, -60.000000)" fill="#FFFFFF" fill-rule="nonzero">
            <g id="navigation" transform="translate(36.000000, 36.000000)">
                <g id="instagram" transform="translate(1328.000000, 24.000000)">
                    <path d="M11.5205647,0 L4.39096471,0 C1.96978824,0 0,1.96988235 0,4.39105882 L0,11.5206588 C0,13.9419294 1.96978824,15.9117176 4.39096471,15.9117176 L11.5205647,15.9117176 C13.9419294,15.9117176 15.9117176,13.9418353 15.9117176,11.5206588 L15.9117176,4.39105882 C15.9117176,1.96988235 13.9419294,0 11.5205647,0 Z M14.5000471,11.5206588 C14.5000471,13.1634824 13.1634824,14.4999529 11.5206588,14.4999529 L4.39096471,14.4999529 C2.74823529,14.4999529 1.41176471,13.1634824 1.41176471,11.5206588 L1.41176471,4.39105882 C1.41176471,2.74832941 2.74823529,1.41176471 4.39096471,1.41176471 L11.5205647,1.41176471 C13.1633882,1.41176471 14.5000471,2.74832941 14.5000471,4.39105882 L14.5000471,11.5206588 L14.5000471,11.5206588 Z" id="Shape"></path>
                    <path d="M7.95585882,3.856 C5.69505882,3.856 3.85581176,5.69524706 3.85581176,7.95604706 C3.85581176,10.2167529 5.69505882,12.0559059 7.95585882,12.0559059 C10.2166588,12.0559059 12.0559059,10.2167529 12.0559059,7.95604706 C12.0559059,5.69524706 10.2166588,3.856 7.95585882,3.856 Z M7.95585882,10.6440471 C6.4736,10.6440471 5.26757647,9.43821176 5.26757647,7.95595294 C5.26757647,6.4736 6.47350588,5.26767059 7.95585882,5.26767059 C9.43821176,5.26767059 10.6441412,6.4736 10.6441412,7.95595294 C10.6441412,9.43821176 9.43811765,10.6440471 7.95585882,10.6440471 Z" id="Shape"></path>
                    <path d="M12.2278588,2.65891765 C11.9558588,2.65891765 11.6886588,2.76903529 11.4965647,2.96197647 C11.3035294,3.15397647 11.1925647,3.42127059 11.1925647,3.69421176 C11.1925647,3.96630588 11.3036235,4.23350588 11.4965647,4.42644706 C11.6885647,4.61844706 11.9558588,4.72950588 12.2278588,4.72950588 C12.5008,4.72950588 12.7671529,4.61844706 12.9600941,4.42644706 C13.1530353,4.23350588 13.2631529,3.96621176 13.2631529,3.69421176 C13.2631529,3.42127059 13.1530353,3.15397647 12.9600941,2.96197647 C12.7680941,2.76903529 12.5008,2.65891765 12.2278588,2.65891765 Z" id="Path"></path>
                </g>
            </g>
        </g>
    </g>
</svg>