<?xml version="1.0" encoding="UTF-8"?>
<svg width="25px" height="16px" viewBox="0 0 25 16" version="1.1" xmlns="http://www.w3.org/2000/svg" xmlns:xlink="http://www.w3.org/1999/xlink">
    <!-- Generator: Sketch 59.1 (86144) - https://sketch.com -->
    <title>sea</title>
    <desc>Created with Sketch.</desc>
    <g id="Page-1" stroke="none" stroke-width="1" fill="none" fill-rule="evenodd">
        <g id="V!" transform="translate(-1084.000000, -16.000000)" fill="#FFFFFF" fill-rule="nonzero">
            <g id="header">
                <g id="TopBar" transform="translate(1084.000000, 14.000000)">
                    <g id="sea" transform="translate(0.000000, 2.000000)">
                        <g transform="translate(0.000000, 0.000000)" id="Path">
                            <path d="M19.7396461,12.7927334 C18.2771084,12.7927334 17.5222139,13.3236069 16.8563629,13.7917922 C16.2714608,14.2029368 15.809488,14.5276732 14.8044051,14.5276732 C13.7995106,14.5276732 13.3375376,14.2029368 12.7528238,13.7917922 C12.0869729,13.3234187 11.3320783,12.7927334 9.86954067,12.7927334 C8.40719128,12.7927334 7.65229667,13.3236069 6.98644578,13.7917922 C6.40173195,14.2029368 5.93975904,14.5276732 4.93486448,14.5276732 C3.92996988,14.5276732 3.46799701,14.2029368 2.88328313,13.7917922 C2.21724395,13.3236069 1.4623494,12.7927334 -2.84217094e-14,12.7927334 L-2.84217094e-14,14.2385166 C1.00508284,14.2385166 1.46686747,14.563253 2.0515813,14.9745858 C2.71762048,15.4427711 3.4723268,15.9734563 4.93486448,15.9734563 C6.39721388,15.9734563 7.15210843,15.4427711 7.81795933,14.9745858 C8.4026732,14.563253 8.86464607,14.2385166 9.86954067,14.2385166 C10.8746235,14.2385166 11.3364081,14.563253 11.9213103,14.9745858 C12.5871612,15.4427711 13.3420557,15.9734563 14.8044051,15.9734563 C16.2669427,15.9734563 17.0218373,15.4427711 17.6878765,14.9745858 C18.2725904,14.5634413 18.7345633,14.2385166 19.7396461,14.2385166 C20.7447289,14.2385166 21.2065135,14.563253 21.7914157,14.9745858 C22.4572666,15.4427711 23.2121612,15.9734563 24.6746988,15.9734563 L24.6746988,14.5276732 C23.669616,14.5276732 23.2076431,14.2029368 22.6229292,13.7917922 C21.9568901,13.3236069 21.2019955,12.7927334 19.7396461,12.7927334 L19.7396461,12.7927334 Z"></path>
                            <path d="M19.7396461,4.26430723 C18.2771084,4.26430723 17.5222139,4.79499248 16.8563629,5.26317773 C16.2714608,5.67432231 15.809488,5.99924699 14.8044051,5.99924699 C13.7995106,5.99924699 13.3375376,5.67432231 12.7528238,5.26317773 C12.0869729,4.79499248 11.3320783,4.26430723 9.86954067,4.26430723 C8.40719128,4.26430723 7.65229667,4.79499248 6.98644578,5.26317773 C6.40173195,5.67432231 5.93975904,5.99924699 4.93486448,5.99924699 C3.92996988,5.99924699 3.46799701,5.67432231 2.88328313,5.26317773 C2.21724395,4.79499248 1.4623494,4.26430723 -2.84217094e-14,4.26430723 L-2.84217094e-14,5.71009036 C1.00508284,5.71009036 1.46686747,6.0348268 2.0515813,6.44597137 C2.71762048,6.91434487 3.4723268,7.44503012 4.93486448,7.44503012 C6.39721388,7.44503012 7.15210843,6.91415663 7.81795933,6.44597137 C8.4026732,6.0348268 8.86464607,5.71009036 9.86954067,5.71009036 C10.8746235,5.71009036 11.3364081,6.0348268 11.9213103,6.44597137 C12.5871612,6.91434487 13.3420557,7.44503012 14.8044051,7.44503012 C16.2669427,7.44503012 17.0218373,6.91415663 17.6878765,6.44597137 C18.2725904,6.0348268 18.7345633,5.71009036 19.7396461,5.71009036 C20.7447289,5.71009036 21.2065135,6.0348268 21.7914157,6.44597137 C22.4572666,6.91434487 23.2121612,7.44503012 24.6746988,7.44503012 L24.6746988,5.99924699 C23.669616,5.99924699 23.2076431,5.67432231 22.6229292,5.26317773 C21.9568901,4.79499248 21.2019955,4.26430723 19.7396461,4.26430723 L19.7396461,4.26430723 Z"></path>
                            <path d="M19.7396461,8.52861446 C18.2771084,8.52861446 17.5222139,9.05929971 16.8563629,9.52748492 C16.2714608,9.93862949 15.809488,10.2635542 14.8044051,10.2635542 C13.7995106,10.2635542 13.3375376,9.93862949 12.7528238,9.52748492 C12.0869729,9.05929971 11.3320783,8.52861446 9.86954067,8.52861446 C8.40719128,8.52861446 7.65229667,9.05929971 6.98644578,9.52748492 C6.40173195,9.93862949 5.93975904,10.2635542 4.93486448,10.2635542 C3.92996988,10.2635542 3.46799701,9.93862949 2.88328313,9.52748492 C2.21724395,9.05929971 1.4623494,8.52861446 -2.84217094e-14,8.52861446 L-2.84217094e-14,9.97439759 C1.00508284,9.97439759 1.46686747,10.299134 2.0515813,10.7102786 C2.71762048,11.1784639 3.4723268,11.7093373 4.93486448,11.7093373 C6.39721388,11.7093373 7.15210843,11.1784639 7.81795933,10.7102786 C8.4026732,10.299134 8.86464607,9.97439759 9.86954067,9.97439759 C10.8746235,9.97439759 11.3364081,10.299134 11.9213103,10.7102786 C12.5871612,11.1784639 13.3420557,11.7093373 14.8044051,11.7093373 C16.2669427,11.7093373 17.0218373,11.1784639 17.6878765,10.7102786 C18.2725904,10.299134 18.7345633,9.97439759 19.7396461,9.97439759 C20.7447289,9.97439759 21.2065135,10.299134 21.7914157,10.7102786 C22.4572666,11.1784639 23.2121612,11.7093373 24.6746988,11.7093373 L24.6746988,10.2635542 C23.669616,10.2635542 23.2076431,9.93862949 22.6229292,9.52748492 C21.9568901,9.05929971 21.2019955,8.52861446 19.7396461,8.52861446 L19.7396461,8.52861446 Z"></path>
                            <path d="M22.6229292,0.999058747 C21.9568901,0.530685253 21.2019955,0 19.7396461,0 C18.2771084,0 17.5222139,0.530685253 16.8563629,0.999058747 C16.2714608,1.41020333 15.809488,1.73493976 14.8044051,1.73493976 C13.7995106,1.73493976 13.3375376,1.41020333 12.7528238,0.999058747 C12.0869729,0.530685253 11.3320783,0 9.86954067,0 C8.40719128,0 7.65229667,0.530685253 6.98644578,0.999058747 C6.40173195,1.41020333 5.93975904,1.73493976 4.93486448,1.73493976 C3.92996988,1.73493976 3.46799701,1.41020333 2.88328313,0.999058747 C2.21724395,0.530685253 1.4623494,0 -2.84217094e-14,0 L-2.84217094e-14,1.44578313 C1.00508284,1.44578313 1.46686747,1.77051957 2.0515813,2.18166414 C2.71762048,2.65003764 3.4723268,3.18072289 4.93486448,3.18072289 C6.39721388,3.18072289 7.15210843,2.65003764 7.81795933,2.18166414 C8.4026732,1.77051957 8.86464607,1.44578313 9.86954067,1.44578313 C10.8746235,1.44578313 11.3364081,1.77051957 11.9213103,2.18166414 C12.5871612,2.65003764 13.3420557,3.18072289 14.8044051,3.18072289 C16.2669427,3.18072289 17.0218373,2.65003764 17.6878765,2.18166414 C18.2725904,1.77051957 18.7345633,1.44578313 19.7396461,1.44578313 C20.7447289,1.44578313 21.2065135,1.77051957 21.7914157,2.18166414 C22.4572666,2.65003764 23.2121612,3.18072289 24.6746988,3.18072289 L24.6746988,1.73493976 C23.669616,1.73493976 23.2076431,1.41020333 22.6229292,0.999058747 L22.6229292,0.999058747 Z"></path>
                        </g>
                    </g>
                </g>
            </g>
        </g>
    </g>
</svg>