<?xml version="1.0" encoding="UTF-8"?>
<svg width="18px" height="18px" viewBox="0 0 18 18" version="1.1" xmlns="http://www.w3.org/2000/svg" xmlns:xlink="http://www.w3.org/1999/xlink">
    <!-- Generator: Sketch 59.1 (86144) - https://sketch.com -->
    <title>Sun</title>
    <desc>Created with Sketch.</desc>
    <g id="Page-1" stroke="none" stroke-width="1" fill="none" fill-rule="evenodd">
        <g id="V!" transform="translate(-1219.000000, -16.000000)" fill="#FFFFFF" fill-rule="nonzero">
            <g id="header">
                <g id="TopBar" transform="translate(1084.000000, 14.000000)">
                    <g id="sun" transform="translate(135.000000, 2.000000)">
                        <g id="Sun">
                            <path d="M8.98,4.5 C6.49853081,4.5 4.48,6.51841135 4.48,9 C4.48,11.4814692 6.49853081,13.5 8.98,13.5 C11.4615887,13.5 13.48,11.4814692 13.48,9 C13.48,6.51841135 11.4615887,4.5 8.98,4.5 Z M8.98,12.2639138 C7.18033536,12.2639138 5.71608618,10.7996646 5.71608618,9 C5.71608618,7.20033536 7.18033536,5.73608618 8.98,5.73608618 C10.7796646,5.73608618 12.2439138,7.20033536 12.2439138,9 C12.2439138,10.7996646 10.7796646,12.2639138 8.98,12.2639138 Z" id="Shape"></path>
                            <path d="M9.5,2.7286071 L9.5,1.0913929 C9.5,0.31657349 8.3,0.315831335 8.3,1.0913929 L8.3,2.7286071 C8.3,3.50342651 9.5,3.50416867 9.5,2.7286071 Z" id="Path"></path>
                            <path d="M8.3,15.2673697 L8.3,16.9047107 C8.3,17.6795198 9.5,17.6802619 9.5,16.9047107 L9.5,15.2673697 C9.5,14.492709 8.3,14.4919669 8.3,15.2673697 Z" id="Path"></path>
                            <path d="M13.6828252,4.98207646 L14.6329924,4.03178744 C15.082674,3.58222766 14.40273,2.90106536 13.9524392,3.35123433 L13.0022721,4.30152334 C12.5440622,4.7597332 13.242281,5.4226207 13.6828252,4.98207646 L13.6828252,4.98207646 Z" id="Path"></path>
                            <path d="M4.28592885,13.0177447 L3.33563984,13.9680337 C2.8775518,14.4262436 3.57577057,15.0891311 4.01619296,14.6485869 L4.96648197,13.6984197 C5.41701644,13.2478852 4.73536682,12.5683068 4.28592885,13.0177447 L4.28592885,13.0177447 Z" id="Path"></path>
                            <path d="M16.889082,8.418735 L15.2517737,8.418735 C14.4771283,8.418735 14.4762378,9.618735 15.2517737,9.618735 L16.889082,9.618735 C17.6638758,9.618735 17.6646179,8.418735 16.889082,8.418735 L16.889082,8.418735 Z" id="Path"></path>
                            <path d="M2.7086071,8.418735 L1.0713929,8.418735 C0.29657349,8.418735 0.295831335,9.618735 1.0713929,9.618735 L2.7086071,9.618735 C3.48342651,9.618735 3.48416867,8.418735 2.7086071,8.418735 Z" id="Path"></path>
                            <path d="M13.6828252,13.0177447 C13.2332654,12.5681849 12.5519813,13.2481289 13.0022721,13.6984197 L13.9524392,14.6485869 C14.4001716,15.0963192 15.0876691,14.4225886 14.6329924,13.9680337 L13.6828252,13.0177447 Z" id="Path"></path>
                            <path d="M4.28592885,4.98207646 C4.73487949,5.43102709 5.41579811,4.75083948 4.96648197,4.30152334 L4.01619296,3.35123433 C3.56663317,2.90155268 2.88559269,3.58174033 3.33563984,4.03178744 L4.28592885,4.98207646 Z" id="Path"></path>
                        </g>
                    </g>
                </g>
            </g>
        </g>
    </g>
</svg>