<?xml version="1.0" encoding="UTF-8"?>
<svg width="22px" height="16px" viewBox="0 0 22 16" version="1.1" xmlns="http://www.w3.org/2000/svg" xmlns:xlink="http://www.w3.org/1999/xlink">
    <!-- Generator: Sketch 59.1 (86144) - https://sketch.com -->
    <title>wind</title>
    <desc>Created with Sketch.</desc>
    <g id="Page-1" stroke="none" stroke-width="1" fill="none" fill-rule="evenodd">
        <g id="V!" transform="translate(-1148.000000, -16.000000)" fill="#FFFFFF" fill-rule="nonzero">
            <g id="header">
                <g id="TopBar" transform="translate(1084.000000, 14.000000)">
                    <g id="wind" transform="translate(64.000000, 0.000000)">
                        <g transform="translate(-0.000000, 2.000000)" id="Path">
                            <path d="M12.1636211,10.1152842 L3.48037895,10.1152842 L3.48037895,11.3784421 L12.1636211,11.3784421 C13.1335158,11.3784421 13.9225684,12.1674947 13.9225684,13.1373895 C13.9225684,14.0010105 13.2199579,14.7036632 12.3562947,14.7036632 C11.5902737,14.7036632 10.9671158,14.0805053 10.9671158,13.3145263 L9.70395789,13.3145263 C9.70395789,14.7770105 10.8938105,15.9668211 12.3562947,15.9668211 C13.9164632,15.9668211 15.1857263,14.6975158 15.1857263,13.1373895 C15.1857263,11.4709895 13.8300211,10.1152842 12.1636211,10.1152842 Z"></path>
                            <path d="M17.2770105,0.0331789474 C15.0786947,0.0331789474 13.2902316,1.82164211 13.2902316,4.01995789 L14.5533895,4.01995789 C14.5533895,2.51814737 15.7752,1.29633684 17.2770105,1.29633684 C18.9409684,1.29633684 20.2947368,2.65006316 20.2947368,4.31406316 C20.2947368,6.15444211 18.7974737,7.65170526 16.9570947,7.65170526 L0,7.65170526 L0,8.91486316 L16.9570947,8.91486316 C19.4939789,8.91486316 21.5578947,6.85098947 21.5578947,4.31410526 C21.5578947,1.9536 19.6375158,0.0331789474 17.2770105,0.0331789474 Z"></path>
                            <path d="M9.93242105,1.53414737 C8.69696842,1.53414737 7.69183158,2.53928421 7.69183158,3.77473684 L8.95498947,3.77473684 C8.95498947,3.23578947 9.39347368,2.79730526 9.93242105,2.79730526 C10.5491789,2.79730526 11.0509053,3.29903158 11.0509053,3.91578947 C11.0509053,4.61713684 10.4803789,5.18770526 9.77903158,5.18770526 L3.48037895,5.18770526 L3.48037895,6.45086316 L9.77903158,6.45086316 C11.1768842,6.45086316 12.3140632,5.31364211 12.3140632,3.91578947 C12.3140632,2.60256842 11.2456842,1.53414737 9.93242105,1.53414737 Z"></path>
                        </g>
                    </g>
                </g>
            </g>
        </g>
    </g>
</svg>